<svg xmlns="http://www.w3.org/2000/svg" xmlns:xlink="http://www.w3.org/1999/xlink" width="66" height="48" viewBox="0 0 66 48">
  <defs>
    <linearGradient id="linear-gradient" x1="0.745" y1="0.309" x2="0.227" y2="1.007" gradientUnits="objectBoundingBox">
      <stop offset="0" stop-color="#33ccae"/>
      <stop offset="0.038" stop-color="#2ec6ad"/>
      <stop offset="0.252" stop-color="#1aaeac"/>
      <stop offset="0.476" stop-color="#0b9caa"/>
      <stop offset="0.716" stop-color="#0292aa"/>
      <stop offset="1" stop-color="#008faa"/>
    </linearGradient>
    <clipPath id="clip-logo_icon">
      <rect width="66" height="48"/>
    </clipPath>
  </defs>
  <g id="logo_icon" clip-path="url(#clip-logo_icon)">
    <g id="Group_410" data-name="Group 410" transform="translate(-1302 -206)">
      <g id="Group_405" data-name="Group 405" transform="translate(673.5 -259.754)">
        <path id="Path_347" data-name="Path 347" d="M693.385,511.867c-12.533.657-19.294-1.993-23.394-6.167-9.16-9.325-5.037-26.253-22.321-30.886a39.167,39.167,0,0,0-9.319-1.187,22.535,22.535,0,0,1,35.816,4.564l.009.015q.551,1.114,1.082,2.179C690.227,510.422,693.385,511.867,693.385,511.867ZM657.869,483a18.528,18.528,0,0,0-10.972-7.14,39.087,39.087,0,0,0-9.247-1.11,22.539,22.539,0,0,0,10.9,35.924l.026.008c-10.526-12.31.14-30.325,9.328-27.634Zm3.273,6.733-.17-.079a5.586,5.586,0,0,1-.275.825,5.661,5.661,0,0,1-10.68-3.675c-3.354,4.017-5.628,9-4.671,14.848a21.621,21.621,0,0,0,4.564,9.274q.11.139.223.278h.005a22.568,22.568,0,0,0,19.228-4.654h0C665.359,503.474,660.891,493.3,661.141,489.732Z" fill="url(#linear-gradient)"/>
      </g>
    </g>
  </g>
</svg>
