<svg xmlns="http://www.w3.org/2000/svg" xmlns:xlink="http://www.w3.org/1999/xlink" width="40" height="40" viewBox="0 0 40 40">
  <defs>
    <clipPath id="clip-dashboard">
      <rect width="40" height="40"/>
    </clipPath>
  </defs>
  <g id="dashboard" clip-path="url(#clip-dashboard)">
    <g id="Group_145" data-name="Group 145" transform="translate(-44.748 -363.499)" opacity="0.998">
      <g id="Group_144" data-name="Group 144" transform="translate(45.5 370.833)">
        <g id="Group_143" data-name="Group 143">
          <g id="Group_142" data-name="Group 142">
            <g id="Group_141" data-name="Group 141">
              <g id="Group_140" data-name="Group 140">
                <g id="Group_138" data-name="Group 138" transform="translate(17.666 10.312)">
                  <path id="Path_235" data-name="Path 235" d="M64.1,376.024l-8.947,7.866-.033.031a1.529,1.529,0,0,0,1.078,2.612,1.553,1.553,0,0,0,1.115-.484l7.866-8.947a.765.765,0,0,0-1.08-1.078Z" transform="translate(-54.667 -375.833)" fill="#5c6d7e" stroke="#5c6d7e" stroke-width="0.5"/>
                </g>
                <g id="Group_139" data-name="Group 139">
                  <path id="Path_236" data-name="Path 236" d="M64.5,370.833c-10.477,0-19,8.8-19,19.624a20.184,20.184,0,0,0,.9,5.974.8.8,0,0,0,.754.569H81.843a.8.8,0,0,0,.754-.569,20.185,20.185,0,0,0,.9-5.974C83.5,379.636,74.977,370.833,64.5,370.833Zm15.042,20.442h2.32a18.417,18.417,0,0,1-.608,4.088H47.746a18.419,18.419,0,0,1-.608-4.088h2.32a.818.818,0,0,0,0-1.635H47.123a18.342,18.342,0,0,1,1.927-7.453l2.027,1.211a.774.774,0,0,0,.4.11.783.783,0,0,0,.684-.41.831.831,0,0,0-.289-1.117l-2.024-1.207a17.837,17.837,0,0,1,5.28-5.453l1.168,2.092a.788.788,0,0,0,.686.408.774.774,0,0,0,.4-.11.831.831,0,0,0,.289-1.117l-1.17-2.1a16.844,16.844,0,0,1,7.214-1.988v2.412a.793.793,0,1,0,1.585,0v-2.412a16.844,16.844,0,0,1,7.214,1.988l-1.17,2.1a.831.831,0,0,0,.289,1.117.774.774,0,0,0,.4.11.788.788,0,0,0,.686-.408l1.169-2.092a17.837,17.837,0,0,1,5.28,5.453l-2.024,1.207a.831.831,0,0,0-.289,1.117.783.783,0,0,0,.684.41.774.774,0,0,0,.4-.11l2.027-1.211a18.343,18.343,0,0,1,1.927,7.453H79.542a.818.818,0,0,0,0,1.635Z" transform="translate(-45.5 -370.833)" fill="#5c6d7e" stroke="#5c6d7e" stroke-width="0.5"/>
                </g>
              </g>
            </g>
          </g>
        </g>
      </g>
    </g>
  </g>
</svg>
