<svg width="15" height="15" viewBox="0 0 15 15" fill="none" xmlns="http://www.w3.org/2000/svg">
<path d="M7.49986 1C7.34051 1.00004 7.18769 1.06336 7.07501 1.17604C6.96233 1.28872 6.89901 1.44153 6.89897 1.60089V8.45593L4.60101 6.15797C4.5452 6.10217 4.47895 6.05791 4.40604 6.02772C4.33313 5.99752 4.25499 5.98199 4.17607 5.982C4.0167 5.98201 3.86385 6.04533 3.75117 6.15804C3.63848 6.27074 3.57518 6.4236 3.5752 6.58297C3.57521 6.74235 3.63853 6.89519 3.75124 7.00788L7.0749 10.3311C7.18764 10.4438 7.34049 10.5071 7.49986 10.5071C7.65923 10.5071 7.81209 10.4438 7.92482 10.3311L11.2485 7.0073C11.3612 6.89461 11.4245 6.74177 11.4245 6.5824C11.4245 6.42302 11.3612 6.27017 11.2486 6.15746C11.1359 6.04476 10.983 5.98143 10.8237 5.98142C10.6643 5.9814 10.5114 6.0447 10.3987 6.15739L8.10075 8.45593V1.60089C8.10071 1.44153 8.03739 1.28872 7.92471 1.17604C7.81203 1.06336 7.65921 1.00004 7.49986 1Z" fill="white" stroke="white" stroke-width="0.2"/>
<path d="M1.60089 8.94531C1.44152 8.94531 1.28868 9.00862 1.176 9.12131C1.06331 9.234 1 9.38684 1 9.5462V11.5262C1.00073 12.1821 1.2616 12.811 1.72539 13.2748C2.18918 13.7385 2.818 13.9994 3.4739 14.0001H11.5261C12.182 13.9994 12.8108 13.7385 13.2746 13.2748C13.7384 12.811 13.9993 12.1821 14 11.5262V9.5462C14 9.46729 13.9845 9.38915 13.9543 9.31625C13.9241 9.24335 13.8798 9.17711 13.824 9.12131C13.7682 9.06551 13.702 9.02125 13.6291 8.99105C13.5562 8.96086 13.478 8.94531 13.3991 8.94531C13.3202 8.94531 13.2421 8.96086 13.1692 8.99105C13.0963 9.02125 13.03 9.06551 12.9742 9.12131C12.9184 9.17711 12.8742 9.24335 12.844 9.31625C12.8138 9.38915 12.7982 9.46729 12.7982 9.5462V11.5262C12.7978 11.8635 12.6637 12.1869 12.4252 12.4254C12.1867 12.6638 11.8634 12.798 11.5261 12.7984H3.4739C3.13663 12.798 2.81328 12.6638 2.5748 12.4254C2.33631 12.1869 2.20216 11.8635 2.20178 11.5262V9.5462C2.2018 9.46729 2.18627 9.38914 2.15608 9.31623C2.12589 9.24332 2.08163 9.17707 2.02582 9.12127C1.97002 9.06547 1.90377 9.02121 1.83086 8.99101C1.75795 8.96082 1.6798 8.94529 1.60089 8.94531Z" fill="white" stroke="white" stroke-width="0.2"/>
</svg>
