<svg id="Layer_1" data-name="Layer 1" xmlns="http://www.w3.org/2000/svg" xmlns:xlink="http://www.w3.org/1999/xlink" viewBox="0 0 1643 433"><defs><style>.cls-1{opacity:0;}.cls-2{fill:url(#linear-gradient);}</style><linearGradient id="linear-gradient" x1="15.51" y1="222.16" x2="1640.48" y2="222.16" gradientTransform="matrix(1, 0, 0, -1, 0, 434)" gradientUnits="userSpaceOnUse"><stop offset="0" stop-color="#33ccae"/><stop offset="0.04" stop-color="#2fc7ae"/><stop offset="0.25" stop-color="#1aaeac"/><stop offset="0.48" stop-color="#0c9dab"/><stop offset="0.72" stop-color="#0392aa"/><stop offset="1" stop-color="#008faa"/></linearGradient></defs><title>logo</title><g class="cls-1"><rect x="-703" width="2346" height="433"/></g><path class="cls-2" d="M485.62,118.73a96.85,96.85,0,0,1,38.16,38q13.85,24.53,13.85,56.55T523.78,270a96.45,96.45,0,0,1-38.16,38.15q-24.31,13.46-55.16,13.45-42.72,0-67.62-28.47V395.54H313.41V107.65h47.06v27.68a76.6,76.6,0,0,1,30.25-22.54,102.28,102.28,0,0,1,39.74-7.51Q461.3,105.28,485.62,118.73ZM469.81,261.09q17.58-18.19,17.6-47.85t-17.6-47.85q-17.61-18.18-44.89-18.19a63.64,63.64,0,0,0-32,8.1,58.66,58.66,0,0,0-22.54,23.14q-8.31,15-8.3,34.8t8.3,34.8a58.57,58.57,0,0,0,22.54,23.13,63.52,63.52,0,0,0,32,8.11q27.3,0,44.89-18.19ZM756.89,118.73a96.85,96.85,0,0,1,38.16,38q13.85,24.53,13.84,56.55T795.05,270a96.45,96.45,0,0,1-38.16,38.15q-24.32,13.46-55.16,13.45-42.72,0-67.62-28.47V395.54H584.68V107.65h47.06v27.68A76.56,76.56,0,0,1,662,112.79a102.28,102.28,0,0,1,39.74-7.51q30.82,0,55.15,13.45ZM741.08,261.09q17.58-18.19,17.6-47.85t-17.6-47.85q-17.61-18.18-44.89-18.19a63.64,63.64,0,0,0-32,8.1,58.66,58.66,0,0,0-22.54,23.14q-8.31,15-8.3,34.8t8.3,34.8a58.57,58.57,0,0,0,22.54,23.13,63.52,63.52,0,0,0,32,8.11q27.28,0,44.89-18.19ZM856,25.4h49.43V318.82H856Zm151.4,282.35a100.82,100.82,0,0,1-40.14-38.56q-14.44-24.7-14.43-55.95t14.43-55.76a101.31,101.31,0,0,1,40.14-38.36q25.7-13.83,57.74-13.84,32.41,0,58.12,13.84a101.31,101.31,0,0,1,40.14,38.36q14.43,24.53,14.43,55.76t-14.43,55.95a100.82,100.82,0,0,1-40.14,38.56q-25.71,13.85-58.12,13.84Q1033.1,321.59,1007.4,307.75Zm102.82-46.66Q1128,242.9,1128,213.24t-17.79-47.85q-17.81-18.18-45.08-18.19t-44.89,18.19q-17.6,18.2-17.6,47.85t17.6,47.85q17.6,18.18,44.89,18.19T1110.22,261.09Zm306.86-153.44-98.86,228.17q-13.85,34.41-33.62,48.45t-47.84,14a98,98,0,0,1-31.25-5.15q-15.42-5.13-25.3-14.23L1200,342.55a53.45,53.45,0,0,0,16.81,10.67,51.4,51.4,0,0,0,19.57,4q13,0,21.55-6.73T1273.55,328l3.56-8.31-92.14-212h51.41l66.43,156.2,66.83-156.2Zm222.63,121.4H1474q4.35,23.34,22.74,37t45.67,13.64q34.8,0,57.34-22.94l26.5,30.46a89.22,89.22,0,0,1-36,25.7q-21.75,8.7-49,8.7-34.82,0-61.3-13.84t-41-38.58q-14.45-24.7-14.43-55.95,0-30.86,14-55.56a99.65,99.65,0,0,1,39-38.56q24.92-13.83,56.15-13.84,30.86,0,55.17,13.65a96.68,96.68,0,0,1,38,38.35q13.65,24.72,13.64,57.14,0,5.15-.77,14.63Zm-146.12-70.18q-16.41,14-20,37.36h119.82q-3.17-22.92-19.37-37.17t-40.34-14.24q-23.7,0-40.11,14.05ZM228.22,179.72,275.06,318H216.5l-10.69-31.56q-33.66,38-84.25,38-34.68,0-62.1-19.41a105.29,105.29,0,0,1-43.91-88.54A107.6,107.6,0,0,1,36.8,154.43a115.83,115.83,0,0,1,91-46.3q34.67,0,62.08,19.62A102.86,102.86,0,0,1,228.22,179.72Zm-66.47,74.94q16.33-15.61,16.94-37.94.76-28-22.05-44.23a53.19,53.19,0,0,0-30.75-9.34q-28.54,0-44.66,22.72A54.51,54.51,0,0,0,70.6,216.72q-.76,28,22.06,43.82A50.78,50.78,0,0,0,123,270.3a54.1,54.1,0,0,0,38.75-15.64"/></svg>